ply
format ascii 1.0
comment VCGLIB generated
element vertex 49
property float x
property float y
property float z
element face 94
property list uchar int vertex_indices
end_header
0 0.1179829 4.998608 
0 2.60148 4.26993 
0 -2.397128 4.387913 
0 -0.1179829 -4.998608 
0 -2.60148 -4.26993 
0 2.397128 -4.387913 
0 -4.387913 -2.397128 
0 4.26993 -2.60148 
0 -4.998608 0.1179829 
0 4.998608 -0.1179829 
0 -4.26993 2.60148 
0 4.387913 2.397128 
80 2.60148 4.26993 
80 19.99443 -0.4719317 
80 4.387913 2.397128 
80 -17.55165 -9.588511 
80 -19.43528 -4.719089 
80 -0.1179829 -4.998608 
80 -0.4719317 -19.99443 
80 -5.630791 -19.19099 
80 -10.40592 -17.07972 
80 -14.4719 -13.80449 
80 2.397128 -4.387913 
80 4.26993 -2.60148 
80 19.19099 -5.630791 
80 17.07972 -10.40592 
80 13.80449 -14.4719 
80 9.588511 -17.55165 
80 4.719089 -19.43528 
80 -19.99443 0.4719317 
80 -19.19099 5.630791 
80 -17.07972 10.40592 
80 -13.80449 14.4719 
80 -9.588511 17.55165 
80 -4.719089 19.43528 
80 0.1179829 4.998608 
80 -2.397128 4.387913 
80 -4.26993 2.60148 
80 -4.998608 0.1179829 
80 -4.387913 -2.397128 
80 -2.60148 -4.26993 
80 0.4719317 19.99443 
80 5.630791 19.19099 
80 10.40592 17.07972 
80 14.4719 13.80449 
80 17.55165 9.588511 
80 19.43528 4.719089 
80 4.998608 -0.1179829 
110 0 0 
3 0 1 2 
3 3 4 5 
3 5 4 6 
3 5 6 7 
3 7 6 8 
3 7 8 9 
3 9 8 10 
3 9 10 11 
3 11 10 2 
3 11 2 1 
3 12 13 14 
3 15 16 17 
3 15 17 18 
3 15 18 19 
3 15 19 20 
3 15 20 21 
3 22 23 24 
3 22 24 25 
3 22 25 26 
3 22 26 27 
3 22 27 28 
3 22 28 18 
3 22 18 17 
3 29 30 31 
3 29 31 32 
3 29 32 33 
3 29 33 34 
3 29 34 35 
3 29 35 36 
3 29 36 37 
3 29 37 38 
3 16 29 38 
3 16 38 39 
3 16 39 40 
3 16 40 17 
3 35 34 41 
3 35 41 42 
3 35 42 43 
3 35 43 44 
3 35 44 45 
3 35 45 46 
3 35 46 13 
3 35 13 12 
3 14 13 47 
3 47 13 24 
3 47 24 23 
3 11 14 9 
3 9 14 47 
3 9 47 7 
3 7 47 23 
3 7 23 5 
3 5 23 22 
3 5 22 3 
3 3 22 17 
3 3 17 4 
3 4 17 40 
3 4 40 6 
3 6 40 39 
3 48 15 21 
3 48 21 20 
3 48 20 19 
3 48 19 18 
3 48 18 28 
3 48 28 27 
3 48 27 26 
3 48 26 25 
3 48 25 24 
3 48 24 13 
3 48 13 46 
3 48 46 45 
3 6 39 8 
3 8 39 38 
3 8 38 10 
3 10 38 37 
3 10 37 2 
3 2 37 36 
3 2 36 0 
3 0 36 35 
3 0 35 1 
3 1 35 12 
3 1 12 11 
3 11 12 14 
3 48 45 44 
3 48 44 43 
3 48 43 42 
3 48 42 41 
3 48 41 34 
3 48 34 33 
3 48 33 32 
3 48 32 31 
3 48 31 30 
3 48 30 29 
3 48 29 16 
3 48 16 15 
